# xmcd
#
# Track frame offsets: 
#        150
#        30454
#        59546
#        90716
#        123914
#        155261
#        191486
#        221473
#        257886
#        296702
#
# Disc length: 4776 seconds
#
# Revision: 0
# Processed by: cddbd v1.5.2PL0 Copyright (c) Steve Scherf et al.
# Submitted via: ExactAudioCopy v1.3
#
DISCID=8c12a60a
DTITLE=Various Artist - Blues - Golden Age '60s -'70s  vol.03  CD1
DYEAR=2017
DGENRE=Rock
TTITLE0=Geordie (1974) - Ten Feet Tall
TTITLE1=Eagles (1979) - King of Hollywood
TTITLE2=Lynyrd Skynyrd (1974) - I Need You
TTITLE3=Deep Purple (1972) - Lazy
TTITLE4=Budgie (1974) - Hammer And Tongs
TTITLE5=Led Zeppelin (1970) - Stairway To Heaven
TTITLE6=Cactus (1971) - Hometown Bust
TTITLE7=Taste (1969) - Catfish
TTITLE8=Creedence Clearwater Revival (1969) - Graveyard Train
TTITLE9=Pink Floyd (1975) - Shine On You Crazy Diamond
EXTD=
EXTT0=
EXTT1=
EXTT2=
EXTT3=
EXTT4=
EXTT5=
EXTT6=
EXTT7=
EXTT8=
EXTT9=
PLAYORDER=
